<svg width="31" height="31" viewBox="0 0 31 31" fill="none" xmlns="http://www.w3.org/2000/svg">
<line x1="0.5" y1="1" x2="0.5" y2="31" stroke="white"/>
<line y1="0.5" x2="30" y2="0.5" stroke="white"/>
<path d="M2.89229 4.18252C2.85705 4.25543 2.74891 4.46751 2.64263 4.63636C2.51938 4.83214 2.45716 5.07058 2.45046 5.11729C2.44142 5.18017 2.86663 4.49353 3.48889 3.65368C3.73767 3.31792 3.87872 3.18722 3.93161 3.10637C3.9845 3.02552 3.95219 3.00398 3.91614 2.99544C3.76886 2.96055 3.61001 3.12378 3.39991 3.21995C3.11422 3.3507 2.69383 3.25274 2.63568 3.17945C2.48296 2.98701 2.50209 2.81586 2.47548 2.78581C2.32479 2.6156 2.26606 3.17762 2.1766 3.47358C2.14843 3.56678 2.16335 3.68909 2.14916 3.73685C2.13496 3.78462 2.10723 3.75757 2.06729 3.69597C1.83184 3.33289 1.77499 2.95699 1.78101 2.63671C1.78487 2.43059 1.91488 2.26986 1.91136 1.90007C1.91024 1.78258 1.82687 1.7295 1.79386 1.67812C1.75855 1.62316 2.39427 1.58056 3.23802 1.56786C3.58669 1.56261 3.72543 1.55061 4.47351 1.54768C5.13044 1.54511 6.35041 1.5391 7.0097 1.53787C7.669 1.53664 7.73065 1.54005 7.98112 1.54349C8.66902 1.55029 9.16094 1.55015 9.24149 1.53582C9.28081 1.52509 9.31698 1.50735 9.31613 1.47844" stroke="white" stroke-width="2" stroke-linecap="round"/>
<path d="M1.66335 2.21852C1.66335 2.22013 1.66335 2.22173 1.66335 2.6037C1.66335 2.98566 1.66335 3.74792 1.65758 4.16807C1.64951 4.75469 1.5656 5.23638 1.47171 6.00226C1.31916 7.24675 1.40675 7.41089 1.40041 7.84245C1.39712 8.06642 1.35036 8.22603 1.30546 8.40804C1.2362 8.68872 1.207 8.86996 1.18266 9.05308C1.15212 9.28286 1.16231 9.47127 1.13331 9.63674C1.12788 9.73033 1.11603 9.81855 1.09752 9.89379C1.09067 9.93229 1.08896 9.97143 1.06727 10.0928" stroke="white" stroke-width="2" stroke-linecap="round"/>
<path d="M1.81754 8.22646C1.82052 8.13703 1.84585 7.88042 2.34059 6.65263C2.50564 6.24302 2.57722 6.07829 3.01352 5.26262C3.35049 4.63266 3.75181 4.36819 4.07588 4.06855C4.34026 3.82409 4.81198 3.39689 5.1065 3.14134C5.50517 2.8161 5.68651 2.68786 5.84189 2.57564C5.92323 2.51985 6.00964 2.46644 6.17769 2.37802" stroke="white" stroke-width="2" stroke-linecap="round"/>
<path d="M1.33135 13.1503C1.33704 12.9862 1.35502 12.5805 1.37906 12.4984C1.39229 12.4531 1.35852 13.072 1.30103 13.8037C1.26696 14.2374 1.23733 14.4692 1.22735 14.4924C1.22151 14.506 1.22039 14.4116 1.3053 13.8471C1.39021 13.2826 1.56279 12.2223 1.66278 11.6399C1.77552 10.9832 1.91415 10.5232 2.10474 9.86805C2.22493 9.45492 2.3308 9.27528 2.38377 9.15443C2.46127 8.97764 2.63399 8.59801 2.88791 8.12858C3.06824 7.7952 3.35547 7.46389 3.88978 6.94212C4.22199 6.6177 4.72958 6.22696 5.08502 5.95877C5.62655 5.55016 6.00031 5.37375 6.3121 5.22738C6.63256 5.07692 6.91129 4.96444 7.10049 4.87208C7.18484 4.83091 7.24008 4.79064 6.8667 5.12538C6.49332 5.46013 5.68826 6.1684 5.24154 6.55634C4.612 7.10304 4.27405 7.18631 3.98862 7.18504C3.66578 7.18361 3.94467 6.32543 4.34401 5.5562C4.56965 5.12155 4.81295 4.87831 4.96043 4.73537C5.12594 4.57497 5.58576 4.36863 6.15591 4.13264C6.59507 3.95087 7.10289 3.6375 7.46977 3.42779C7.81573 3.23004 8.05586 3.0743 8.51675 2.69141C9.17149 2.14748 9.44769 2.06744 9.9855 1.87425C10.4488 1.70781 10.7239 1.52321 10.919 1.42412C11.2359 1.26312 11.8384 1.38871 11.9928 1.367C12.1927 1.33891 12.4412 1.32757 12.5989 1.30193C12.7608 1.2756 12.9289 1.25511 13.1611 1.23941C13.3336 1.22774 13.6553 1.2199 13.9476 1.20224C14.1506 1.17103 14.27 1.15726 14.3759 1.14836C14.4446 1.14472 14.5439 1.14287 14.6462 1.14096" stroke="white" stroke-width="2" stroke-linecap="round"/>
<path d="M16 1C24.2843 1 31 7.71573 31 16C31 24.2843 24.2843 31 16 31C7.71573 31 1 24.2843 1 16C1 7.71573 7.71573 1 16 1Z" fill="#1D1D1B"/>
</svg>
